/* XPM */
static char * image_name [] = {
/**/
" 7 7 3 1",
/**/
"       s mask  c none",
"X      c black",
"O      c #4C1616",
" XXXXX ",
"XOOOOOX",
"XOOOOOX",
"XOOOOOX",
"XOOOOOX",
"XOOOOOX",
" XXXXX "};